<?xml version="1.0" standalone="no"?>
<!DOCTYPE svg PUBLIC "-//W3C//DTD SVG 20010904//EN"
 "http://www.w3.org/TR/2001/REC-SVG-20010904/DTD/svg10.dtd">
<svg version="1.0" xmlns="http://www.w3.org/2000/svg"
 width="264.000000pt" height="264.000000pt" viewBox="0 0 264.000000 264.000000"
 preserveAspectRatio="xMidYMid meet">
<metadata>
Created by potrace 1.13, written by Peter Selinger 2001-2015
</metadata>
<g transform="translate(0.000000,264.000000) scale(0.100000,-0.100000)"
fill="#000000" stroke="none">
<path d="M875 2393 c-14 -21 -25 -41 -25 -46 0 -5 -7 -15 -15 -23 -8 -9 -15
-26 -15 -39 0 -13 -5 -27 -11 -31 -6 -4 -8 -20 -4 -40 3 -19 3 -40 -2 -47 -4
-6 -8 -30 -9 -52 -2 -31 3 -46 23 -67 14 -14 22 -31 19 -37 -4 -6 2 -19 13
-30 11 -11 17 -22 14 -25 -3 -3 -2 -13 2 -23 5 -10 9 -20 10 -23 16 -46 59
-137 83 -172 16 -25 84 -85 69 -62 -3 6 5 17 18 24 14 7 25 18 25 23 0 5 8 16
18 23 15 12 15 12 -7 7 -20 -5 -23 -3 -18 10 8 22 -16 23 -33 2 -11 -13 -10
-14 5 -9 29 11 8 -14 -26 -31 -31 -16 -41 -3 -11 15 13 8 11 9 -12 4 -25 -6
-28 -4 -23 10 4 11 1 16 -9 16 -10 0 -14 6 -10 15 3 8 0 15 -6 15 -7 0 -6 5 2
15 10 13 9 15 -8 15 -15 0 -20 5 -16 15 4 8 1 15 -5 15 -6 0 -8 7 -5 15 4 8 1
15 -5 15 -6 0 -11 7 -11 15 0 11 7 14 28 10 27 -5 19 0 -27 17 -16 6 -21 12
-14 19 6 6 27 2 61 -12 53 -22 53 -23 56 -86 1 -10 8 -21 16 -24 11 -5 6 -11
-20 -24 -34 -16 -15 -15 25 1 18 7 18 6 6 -9 -7 -9 -9 -17 -3 -17 5 0 15 7 22
15 10 12 10 15 0 15 -7 0 -10 6 -7 14 3 8 -2 17 -11 21 -14 5 -14 7 -2 15 10
7 11 10 3 10 -7 0 -13 7 -13 15 0 9 7 13 18 9 9 -2 7 1 -5 7 -23 12 -31 29
-14 29 22 0 62 -21 56 -29 -3 -5 -1 -13 5 -16 8 -5 7 -11 -1 -21 -7 -9 -8 -14
-1 -14 6 0 10 -8 10 -17 -1 -29 6 -46 27 -65 19 -17 19 -19 3 -32 -10 -7 -18
-18 -18 -23 0 -5 -11 -16 -25 -23 -27 -14 -29 -19 -17 -36 7 -11 92 -37 119
-37 10 0 13 -7 8 -21 -3 -12 -8 -34 -11 -51 -10 -51 -46 -119 -55 -104 -4 7
-5 17 -3 21 3 4 0 8 -5 8 -21 0 -11 19 12 23 l22 4 -22 2 c-21 1 -23 6 -23 55
0 30 -4 57 -9 60 -11 7 -22 -19 -16 -36 8 -24 12 -98 5 -98 -10 0 -44 119 -42
146 1 12 -5 27 -13 34 -12 10 -15 9 -15 -4 0 -9 5 -16 10 -16 6 0 10 -5 10
-11 0 -5 -4 -7 -10 -4 -5 3 -3 -10 5 -29 8 -20 15 -41 15 -48 0 -21 -17 5 -30
47 -7 22 -20 46 -29 53 -14 12 -14 13 4 7 16 -5 17 -4 8 6 -7 7 -24 13 -38 15
-20 2 -25 -2 -25 -19 0 -12 12 -30 25 -40 26 -19 34 -11 13 12 -11 11 -10 13
2 9 8 -3 15 -16 15 -29 0 -13 8 -35 18 -49 30 -43 14 -57 -23 -20 -11 11 -23
20 -27 19 -4 0 -9 5 -12 12 -2 8 3 10 15 6 17 -6 17 -6 -1 9 -19 14 -20 14
-23 -7 -2 -13 3 -28 12 -34 12 -9 13 -14 4 -23 -20 -20 -32 -14 -52 23 -21 38
-98 115 -116 115 -17 0 -11 -7 24 -28 19 -12 52 -46 73 -77 l37 -57 -34 -29
c-60 -51 -80 -63 -91 -52 -11 11 16 68 45 93 16 14 17 17 2 29 -9 7 -16 22
-16 32 0 10 -13 25 -29 34 -16 8 -31 20 -34 27 -3 8 -6 6 -6 -5 -1 -12 10 -23
29 -30 20 -7 28 -17 25 -26 -3 -7 2 -19 11 -26 18 -13 11 -35 -11 -35 -8 0
-11 -7 -8 -19 6 -25 -11 -35 -27 -16 -17 21 -27 19 -34 -7 l-7 -23 -11 22
c-10 21 -48 39 -48 22 0 -5 7 -9 15 -9 16 0 40 -38 30 -48 -3 -4 -10 0 -14 7
-7 10 -13 11 -31 1 -20 -11 -25 -10 -36 5 -8 10 -11 21 -9 25 3 4 -2 13 -10
20 -20 16 -19 27 3 33 9 2 25 8 35 12 12 5 17 2 17 -11 0 -9 3 -15 6 -12 3 3
1 21 -5 39 -5 19 -10 27 -10 18 -1 -17 -47 -43 -61 -34 -17 10 -21 -16 -7 -39
9 -13 18 -53 21 -89 2 -37 8 -72 12 -79 11 -18 12 -48 2 -54 -10 -6 -11 -54 0
-54 4 0 7 -17 8 -37 4 -162 32 -312 54 -298 6 4 10 0 10 -7 0 -7 4 -19 9 -27
8 -13 12 -13 26 -1 15 13 17 12 14 -4 -7 -33 -28 -29 -65 9 -27 29 -37 35 -48
25 -11 -9 -16 -7 -21 10 -4 12 -12 19 -18 17 -16 -5 -21 -75 -6 -93 9 -11 4
-17 -30 -32 -37 -17 -40 -21 -25 -33 9 -7 31 -12 50 -11 25 2 36 -2 41 -15 9
-25 24 -33 49 -27 14 4 25 0 31 -11 8 -13 14 -14 39 -5 16 6 36 18 45 26 15
13 17 10 22 -36 13 -106 118 -245 241 -319 31 -18 98 -50 148 -71 51 -20 102
-43 114 -50 18 -11 26 -10 60 8 21 12 72 35 112 51 40 16 98 44 129 63 117 70
222 206 242 313 11 60 -1 46 -18 -20 -31 -124 -137 -239 -288 -310 -54 -26
-124 -59 -156 -75 l-59 -28 -76 34 c-240 108 -308 155 -377 260 -49 73 -67
132 -66 218 0 70 -15 82 -21 16 -2 -26 -11 -40 -37 -57 -37 -25 -65 -17 -41
12 8 9 8 15 2 15 -6 0 -14 -4 -17 -10 -3 -5 -20 -10 -37 -10 -31 0 -31 0 -13
20 13 14 14 19 4 16 -8 -3 -36 -2 -64 2 l-50 8 33 19 c32 19 41 38 22 50 -5 3
-10 21 -9 38 l0 32 16 -23 c18 -25 33 -29 33 -7 0 23 15 18 30 -9 16 -30 61
-50 95 -42 34 9 31 0 -7 -24 -18 -11 -26 -20 -17 -20 29 0 87 63 94 103 4 21
3 37 -2 37 -6 0 -15 12 -22 27 -10 21 -9 28 1 34 10 7 10 14 -4 38 -15 28 -15
30 3 47 11 9 18 24 17 33 -2 9 3 15 11 13 10 -2 12 4 6 25 -4 15 -8 44 -10 64
-1 20 -15 69 -30 108 -15 40 -26 74 -24 75 93 80 192 156 197 152 3 -4 1 -10
-4 -14 -5 -5 -46 -39 -92 -77 -59 -49 -81 -73 -77 -84 51 -130 59 -167 59
-291 1 -69 -2 -145 -7 -170 l-7 -45 13 40 c8 22 12 44 9 49 -3 5 8 6 24 3 27
-6 27 -6 7 5 -21 10 -23 18 -23 90 0 43 2 78 4 78 2 0 26 -9 52 -20 26 -11 49
-19 51 -16 2 2 -21 14 -51 27 -31 12 -56 26 -56 31 0 11 2 10 45 -8 20 -8 39
-13 41 -11 3 2 -18 14 -46 25 -34 14 -50 27 -50 39 0 10 -13 56 -29 102 l-28
84 30 26 c17 14 53 45 81 69 27 23 55 42 62 42 7 0 24 -15 38 -32 25 -32 25
-33 6 -53 -11 -12 -20 -28 -20 -36 1 -31 57 -73 85 -63 10 4 15 0 15 -10 0
-13 -11 -16 -54 -16 -41 0 -55 -4 -60 -16 -4 -9 -3 -20 0 -23 4 -3 9 0 11 7 7
17 23 15 23 -4 0 -8 -4 -12 -10 -9 -5 3 -10 1 -10 -4 0 -6 8 -11 19 -11 14 0
18 6 16 25 -2 14 1 23 6 19 5 -3 9 -12 9 -20 0 -18 21 -18 56 2 28 15 10 15
-28 -1 -13 -5 -18 -3 -18 8 0 8 13 17 29 20 24 5 29 10 25 29 -2 13 -2 17 2
10 3 -6 10 -10 14 -7 5 3 14 -4 20 -15 9 -16 6 -25 -14 -47 l-25 -27 21 -14
c16 -12 25 -13 39 -4 22 14 32 15 25 3 -4 -5 4 -7 16 -4 21 4 20 2 -7 -21 -16
-14 -36 -26 -43 -26 -23 0 -52 20 -52 36 0 8 -4 13 -10 9 -15 -9 -1 -32 28
-44 38 -15 98 -10 94 8 -2 8 2 17 9 21 15 10 3 30 -17 30 -9 0 -12 5 -8 11 5
8 -1 10 -19 5 -32 -8 -45 10 -24 31 13 14 20 14 46 3 17 -6 36 -19 43 -28 11
-13 10 -14 -12 -8 -25 6 -25 6 -2 -5 28 -15 28 -33 1 -71 -12 -16 -19 -32 -16
-35 12 -11 47 63 47 98 0 25 8 45 25 63 27 29 29 35 19 60 -5 13 -9 14 -20 5
-8 -6 -14 -16 -14 -21 0 -6 7 -5 15 2 9 8 15 9 15 2 0 -17 -20 -25 -34 -13
-10 9 -15 7 -19 -9 -3 -11 -1 -20 4 -20 5 0 9 -7 9 -15 0 -24 -29 -17 -42 10
-8 19 -8 28 2 40 7 8 10 18 8 21 -3 3 -12 -9 -19 -25 -15 -33 -57 -46 -45 -14
4 10 -2 25 -14 38 l-21 23 20 33 c18 29 21 31 21 12 0 -24 56 -60 63 -40 2 8
10 5 22 -6 10 -10 21 -14 24 -9 3 5 20 9 38 9 29 0 31 -2 19 -19 -14 -20 -10
-58 5 -58 5 0 6 12 3 26 -5 18 -3 25 3 21 11 -7 16 -28 33 -125 4 -30 16 -62
24 -71 9 -10 16 -21 16 -24 0 -4 -28 -8 -62 -9 l-63 -2 59 -3 c67 -5 88 7 63
35 -9 10 -20 33 -23 50 -5 27 -3 33 17 42 23 10 23 10 2 6 -32 -6 -29 6 6 27
37 21 55 22 72 0 12 -15 12 -16 -6 -10 -17 6 -17 4 4 -13 13 -11 21 -23 18
-26 -3 -4 -13 1 -22 10 -21 20 -24 20 -55 -4 -19 -15 -22 -22 -12 -28 7 -5 12
-15 10 -22 -2 -7 3 -15 11 -18 8 -3 11 0 7 7 -4 6 -1 11 6 11 7 0 2 8 -11 17
l-24 16 22 9 c13 5 29 3 41 -4 14 -9 22 -9 33 0 11 10 18 7 32 -12 14 -19 28
-24 67 -25 40 0 49 2 44 14 -3 9 0 15 9 15 8 0 26 5 40 12 19 9 25 19 25 45 0
37 -24 47 -35 13 -8 -26 -22 -26 -30 0 -5 15 -15 20 -45 20 -34 0 -38 -2 -32
-22 4 -18 2 -20 -14 -14 -40 17 -59 18 -30 2 32 -18 56 -21 56 -6 0 6 5 10 11
10 5 0 8 -4 5 -9 -3 -5 1 -11 9 -15 8 -3 17 -1 20 4 4 6 11 10 17 10 6 0 2
-10 -9 -23 -11 -12 -18 -28 -16 -34 5 -14 -6 -16 -31 -7 -9 3 -16 12 -16 20 0
8 -7 14 -16 14 -14 0 -14 -3 -4 -15 7 -9 11 -18 8 -20 -3 -3 -24 18 -48 46
-24 28 -39 54 -33 58 5 3 15 15 22 26 12 19 12 19 8 -2 -3 -13 -1 -23 4 -23 5
0 9 7 9 16 0 9 7 14 18 13 38 -5 81 29 82 63 0 10 -10 26 -22 38 l-22 20 29
30 c16 16 35 30 42 30 7 0 49 -30 93 -67 58 -48 79 -71 74 -82 -15 -36 -54
-163 -54 -177 0 -8 -10 -19 -22 -24 -13 -5 -116 -50 -230 -99 l-207 -90 -107
45 c-59 24 -109 43 -111 41 -2 -2 46 -25 107 -51 l111 -47 205 91 c112 49 216
93 229 96 19 5 27 16 35 48 6 22 21 72 35 111 13 38 22 72 19 77 -3 4 -45 42
-95 84 -84 72 -91 75 -104 58 -7 -11 -17 -16 -21 -11 -4 4 -2 7 5 7 7 0 9 4 6
10 -8 13 10 44 52 91 20 22 28 37 19 33 -9 -3 -16 -2 -16 4 0 5 7 12 15 16 8
3 15 11 15 17 0 8 -4 8 -15 -1 -8 -6 -19 -9 -24 -6 -10 6 -25 -11 -26 -29 -1
-18 -27 -90 -37 -100 -11 -11 -1 40 13 67 5 9 9 27 9 39 0 18 -2 19 -15 9 -18
-15 -20 -34 -2 -24 9 6 9 4 1 -7 -6 -8 -19 -44 -28 -81 -10 -38 -21 -68 -25
-68 -11 0 -11 54 1 93 6 20 8 40 4 44 -14 14 -26 -23 -26 -84 0 -59 -1 -63
-24 -63 -20 0 -26 9 -46 71 -12 39 -20 71 -18 73 1 1 29 7 60 13 31 7 65 20
76 30 10 10 34 32 53 49 45 41 136 222 125 249 -2 7 4 21 15 31 11 10 18 23
15 30 -2 6 6 22 19 34 19 18 23 31 21 68 -1 26 -5 53 -9 60 -5 7 -6 25 -2 40
3 16 0 35 -7 45 -12 16 -18 10 -54 -59 -45 -89 -76 -114 -39 -32 13 29 29 74
36 101 12 49 22 59 33 31 4 -9 9 -14 12 -11 5 5 -21 57 -57 115 -8 12 -21 22
-29 21 -10 0 -11 -2 -3 -5 7 -3 22 -21 33 -39 19 -30 20 -39 10 -77 -22 -85
-42 -138 -52 -138 -6 0 -7 7 -4 16 3 9 8 28 11 42 3 15 -4 3 -16 -27 -12 -31
-42 -76 -70 -105 -27 -28 -59 -67 -72 -86 -12 -19 -33 -39 -45 -45 -12 -5 -22
-19 -22 -30 0 -11 -3 -37 -6 -57 -6 -37 -6 -38 25 -38 21 0 31 -5 31 -15 0 -8
-5 -15 -11 -15 -5 0 -8 -4 -4 -9 10 -17 -11 -21 -31 -6 -19 14 -19 14 1 15 17
0 17 2 5 10 -21 14 -30 12 -30 -4 0 -8 -11 -23 -25 -34 -14 -11 -25 -27 -25
-36 0 -9 -5 -16 -11 -16 -5 0 -7 -4 -4 -10 3 -5 11 -10 16 -10 6 0 7 5 4 10
-3 6 -2 10 3 10 5 0 10 -11 10 -23 0 -22 -3 -23 -24 -13 -13 6 -24 16 -24 21
0 6 -8 0 -18 -13 -17 -22 -17 -22 -30 -2 -11 19 -9 22 21 35 19 8 37 22 41 31
5 14 4 15 -8 5 -8 -7 -20 -10 -26 -6 -5 3 -10 -1 -10 -9 0 -19 -12 -20 -29 -3
-10 10 -11 8 -5 -7 4 -11 2 -21 -7 -27 -19 -12 -39 -11 -39 1 0 15 42 60 57
60 7 0 13 5 13 12 0 6 3 8 7 5 3 -4 12 -2 19 4 7 5 25 11 40 12 31 3 45 32 37
79 -9 49 15 91 105 180 114 112 163 197 161 277 l-2 56 -7 -61 c-10 -86 -56
-161 -161 -264 -48 -47 -93 -98 -98 -113 -6 -16 -11 -53 -11 -83 0 -30 -4 -54
-9 -54 -16 0 -41 42 -41 68 0 13 -14 37 -30 54 -28 28 -35 30 -82 26 -34 -4
-56 -12 -65 -24 -18 -25 -12 -49 12 -49 27 0 30 -27 7 -55 -36 -45 -72 -2 -72
86 0 43 -3 48 -98 142 -123 120 -162 191 -162 289 0 34 -4 63 -10 63 -5 0 -21
-17 -35 -37z m36 -75 c0 -52 4 -85 8 -74 6 16 13 9 41 -40 19 -34 70 -95 121
-145 l89 -86 0 -57 c0 -49 4 -61 26 -81 14 -13 36 -27 48 -30 19 -6 64 -25 75
-32 6 -4 -30 -43 -40 -43 -4 0 -11 9 -14 21 -4 11 -9 18 -12 15 -4 -3 -12 -1
-20 6 -11 8 -12 7 -7 -6 3 -9 9 -16 13 -16 3 -1 17 -10 30 -21 19 -16 22 -22
12 -32 -10 -9 -14 -8 -22 5 -6 11 -16 15 -26 11 -11 -4 -14 -3 -9 5 4 7 2 12
-3 12 -6 0 -11 9 -11 20 0 11 -6 20 -13 20 -21 0 -37 36 -48 112 -6 40 -15 82
-20 93 -6 12 -8 13 -5 3 12 -40 -38 1 -64 52 -7 14 -30 40 -51 58 -20 17 -49
55 -63 84 -14 29 -26 47 -26 41 0 -30 25 -70 77 -124 31 -32 53 -62 50 -65 -9
-10 -102 89 -125 134 -11 21 -30 73 -42 116 -20 73 -20 77 -3 106 9 17 21 30
25 30 4 0 8 -42 9 -92z m464 -373 c25 -25 34 -52 13 -39 -7 5 -8 3 -2 -7 15
-25 15 -49 -1 -43 -8 4 -15 1 -15 -6 0 -6 -5 -8 -11 -5 -6 4 -17 -1 -24 -11
-9 -13 -14 -14 -15 -6 0 7 -7 20 -15 28 -13 13 -15 13 -15 1 0 -8 9 -22 19
-32 19 -16 21 -16 50 5 17 12 31 19 31 16 0 -2 3 -12 7 -22 5 -13 3 -16 -9
-11 -9 3 -25 -3 -38 -15 -18 -17 -24 -18 -31 -7 -5 8 -9 10 -9 5 0 -5 -8 -2
-19 8 -10 9 -25 14 -35 10 -9 -3 -16 -1 -16 5 0 6 4 11 9 11 5 0 15 16 22 35
7 19 18 35 25 35 8 0 10 10 4 35 -8 34 -7 35 22 35 17 0 39 -10 53 -25z m403
3 c-2 -6 -22 -17 -44 -24 -34 -11 -35 -12 -6 -8 30 5 44 -7 22 -21 -5 -3 -7
-12 -3 -20 3 -8 0 -15 -6 -15 -6 0 -11 -7 -11 -15 0 -8 -4 -15 -10 -15 -5 0
-7 -7 -4 -15 4 -8 1 -15 -5 -15 -6 0 -8 -7 -4 -16 5 -14 2 -16 -23 -10 -27 7
-28 7 -9 -8 28 -20 12 -31 -25 -16 -33 14 -40 30 -12 30 11 0 13 3 5 8 -7 4
-11 16 -9 27 2 14 10 19 27 18 22 -2 22 -2 4 6 -19 9 -18 10 5 12 24 2 24 2 2
6 -18 4 -21 9 -16 31 9 34 8 34 57 53 51 21 70 23 65 7z m-455 -440 c9 -7 18
-29 20 -48 2 -19 3 -14 2 13 -1 34 2 47 11 47 8 0 14 -8 15 -17 0 -10 7 -36
15 -58 10 -30 12 -32 8 -10 -3 17 -7 38 -10 48 -3 9 -1 17 4 17 5 0 15 -19 22
-42 11 -37 14 -63 20 -162 1 -18 -15 -36 -33 -36 -5 0 -6 16 -3 36 4 21 2 33
-3 29 -5 -3 -12 -1 -15 4 -9 14 4 41 20 41 16 0 19 16 5 24 -5 3 -12 -1 -15
-10 -6 -15 -8 -15 -25 0 -17 16 -19 16 -25 0 -6 -15 -8 -15 -26 1 -12 10 -20
13 -20 7 0 -7 -7 -12 -15 -12 -17 0 -18 9 -4 70 13 60 17 70 27 70 4 0 16 -6
25 -12z m-664 -78 c20 10 25 7 22 -13 -1 -5 2 -7 6 -5 4 2 20 10 36 17 27 14
53 7 28 -8 -9 -6 -7 -10 8 -14 19 -5 20 -7 7 -33 -8 -15 -21 -31 -28 -36 -9
-5 -5 -7 12 -6 38 4 40 -42 4 -71 -15 -12 -25 -24 -22 -26 3 -3 17 6 31 19 26
24 27 24 37 5 8 -13 7 -25 0 -39 -9 -18 -7 -23 10 -22 3 0 5 -18 5 -40 0 -34
-6 -45 -35 -69 -38 -32 -34 -39 7 -12 21 14 25 14 21 3 -6 -21 -80 -70 -95
-65 -7 2 -13 -2 -13 -10 0 -20 7 -19 38 5 25 21 26 21 45 1 22 -21 15 -44 -10
-34 -12 5 -11 0 5 -23 12 -16 24 -43 28 -60 5 -26 1 -35 -22 -53 -16 -12 -29
-19 -30 -14 -1 4 -5 20 -8 36 -4 15 -11 27 -16 27 -6 0 -9 -3 -8 -7 2 -5 -1
-9 -7 -11 -5 -1 -13 12 -16 30 -4 18 -7 25 -8 16 -2 -33 -17 -18 -30 30 -7 26
-15 55 -18 65 -7 24 14 21 22 -4 8 -25 63 -89 77 -89 5 0 -5 15 -23 32 -18 18
-43 57 -56 85 -21 46 -23 58 -13 88 13 38 35 49 25 13 -5 -18 -4 -19 4 -8 5 8
13 11 17 8 3 -4 14 3 24 15 16 19 20 20 36 7 16 -12 17 -12 7 0 -7 8 -13 23
-13 35 0 16 -4 14 -20 -12 -24 -40 -37 -42 -46 -7 l-7 26 -14 -31 c-9 -17 -19
-28 -24 -25 -13 7 -11 51 2 76 10 18 9 20 -5 15 -17 -7 -20 1 -10 27 3 9 14
16 23 16 14 0 14 2 1 11 -13 8 -12 12 8 26 l22 15 -35 39 c-35 39 -51 85 -21
60 11 -9 20 -10 35 -1z"/>
<path d="M1816 1616 c-24 -25 -49 -59 -56 -75 -13 -34 -31 -39 -49 -17 -10 11
-9 16 4 24 10 5 15 18 13 31 -3 19 -5 20 -19 9 -41 -32 -31 -50 73 -132 70
-55 98 -84 95 -95 -3 -9 -16 -44 -28 -78 -19 -49 -21 -65 -12 -74 16 -16 29
-4 15 14 -11 13 -5 57 8 57 4 0 15 -9 25 -20 10 -11 23 -20 29 -20 6 0 -2 10
-17 23 -21 16 -28 30 -25 47 3 24 6 25 58 21 56 -3 83 -16 77 -35 -2 -6 2 -17
10 -24 18 -19 16 -35 -3 -28 -13 5 -14 2 -9 -11 13 -30 18 -83 7 -83 -13 0
-29 20 -35 45 l-5 20 -1 -20 c-1 -11 -5 -27 -10 -34 -8 -12 -13 -11 -30 10
-19 22 -22 23 -31 7 -6 -10 -20 -18 -31 -18 -28 0 -21 -34 8 -38 12 -2 38 -21
58 -44 22 -24 35 -32 31 -21 -4 13 1 26 14 38 57 52 17 -67 -45 -131 -43 -46
-45 -58 -3 -25 13 11 33 35 43 55 18 34 35 47 35 28 0 -11 -31 -105 -37 -112
-2 -2 -8 2 -13 10 -7 11 -10 7 -10 -17 0 -17 -4 -35 -10 -38 -5 -3 -10 1 -10
9 0 9 -4 16 -9 16 -13 0 -25 -60 -14 -71 14 -14 57 5 81 35 23 30 32 33 32 11
0 -21 9 -19 31 8 l18 22 1 -30 c0 -17 -6 -37 -12 -44 -11 -10 -8 -16 11 -32
13 -10 30 -19 39 -19 10 0 13 -3 6 -10 -5 -5 -36 -11 -67 -12 -49 -2 -55 -4
-42 -15 10 -6 14 -16 10 -22 -3 -6 -1 -11 4 -11 6 0 11 9 11 20 0 16 7 20 38
20 36 0 62 14 62 32 0 4 -8 8 -19 8 -30 0 -45 25 -33 58 7 20 6 37 -3 58 l-12
29 -13 -28 c-12 -24 -15 -26 -30 -12 -14 13 -18 11 -33 -15 -10 -16 -27 -32
-38 -35 -22 -7 -48 10 -34 22 4 5 10 2 12 -5 6 -16 33 3 33 24 0 8 6 14 13 14
13 0 52 133 43 148 -2 4 2 57 10 117 9 68 10 112 5 119 -11 13 -10 34 2 53 5
7 10 42 12 78 2 37 10 74 19 87 21 30 20 50 -1 48 -40 -4 -59 11 -71 56 -13
49 -36 64 -98 64 -28 0 -43 -9 -78 -44z m124 19 c13 -16 13 -17 -16 -105 -3
-8 0 -6 7 5 7 10 18 37 25 60 l12 40 12 -30 c6 -16 9 -46 6 -65 -2 -19 -2 -27
1 -17 3 14 11 17 26 12 21 -6 47 -13 56 -14 3 -1 -5 -11 -17 -24 -12 -13 -20
-26 -17 -29 3 -3 -2 -11 -11 -18 -13 -11 -19 -11 -36 -1 -17 10 -22 9 -34 -6
-16 -21 -18 -10 -4 18 6 10 17 19 25 19 8 0 15 4 15 8 0 4 -9 8 -20 8 -11 0
-20 -6 -20 -13 0 -7 -12 -19 -27 -27 -18 -10 -22 -15 -12 -16 9 0 22 -7 29
-15 15 -18 31 -20 24 -2 -3 9 7 13 36 12 49 0 51 -12 6 -59 -23 -25 -42 -36
-62 -36 -35 0 -59 14 -50 28 5 9 -31 41 -132 118 -13 9 -11 18 12 57 53 90
132 133 166 92z"/>
<path d="M1488 747 c-127 -62 -139 -71 -109 -87 21 -10 22 -16 15 -78 -5 -50
-11 -70 -26 -81 -16 -11 -19 -21 -15 -53 10 -78 40 -86 103 -28 40 37 74 54
59 30 -4 -6 -1 -18 6 -26 6 -8 9 -18 5 -21 -4 -4 -11 -1 -16 7 -8 12 -10 10
-10 -7 0 -13 4 -23 9 -23 11 0 32 25 30 36 -1 5 -1 25 0 44 l2 35 30 -34 c28
-31 32 -32 47 -17 15 14 13 18 -22 50 -37 32 -41 56 -10 56 20 0 17 -20 -3
-21 -14 0 -13 -3 6 -12 19 -9 26 -8 37 7 10 14 10 24 3 38 -6 11 -9 20 -7 21
2 1 17 15 34 30 l32 29 -5 -45 c-3 -25 0 -53 6 -63 6 -11 11 -13 11 -6 0 6 6
12 14 12 19 0 46 39 45 65 0 13 -4 9 -10 -12 -11 -39 -16 -41 -30 -10 -9 20
-9 20 -4 -5 4 -21 1 -28 -10 -28 -12 0 -15 8 -13 33 2 23 8 32 21 31 11 -1 17
5 17 18 0 17 -3 18 -15 8 -22 -18 -19 4 3 23 25 23 32 21 33 -5 1 -18 2 -19 6
-5 3 10 0 24 -7 32 -9 10 -4 16 25 25 32 11 49 30 25 30 -5 0 -10 -4 -10 -8 0
-5 -18 -15 -40 -22 -22 -7 -40 -17 -40 -22 0 -4 -16 -1 -36 7 -40 17 -64 19
-64 7 0 -4 12 -9 27 -10 15 -1 34 -8 41 -16 12 -12 10 -19 -19 -45 -40 -37
-106 -74 -166 -91 -23 -7 -40 -17 -37 -21 3 -5 0 -19 -7 -31 -9 -16 -9 -23 0
-26 18 -6 13 -21 -16 -47 -36 -31 -51 -31 -63 1 -16 42 -12 75 10 81 16 4 20
14 20 44 0 22 5 39 10 39 6 0 10 -19 10 -42 0 -27 3 -39 10 -32 6 6 4 32 -6
73 -8 35 -12 66 -9 69 3 3 -5 11 -17 18 -21 11 -14 16 101 73 68 34 117 61
110 60 -8 0 -62 -24 -121 -52z"/>
<path d="M1046 635 c-4 -12 5 -15 49 -15 30 0 55 -4 55 -10 0 -5 7 -10 15 -10
8 0 15 -4 15 -10 0 -6 -38 -10 -95 -10 -57 0 -95 4 -95 10 0 6 6 10 14 10 8 0
16 6 19 14 5 12 1 12 -23 0 -40 -21 -48 -34 -48 -79 2 -63 6 -65 143 -65 l122
0 -2 34 c-1 18 -5 38 -9 44 -3 6 -4 16 -1 24 3 7 -10 23 -30 36 -19 12 -35 27
-35 32 0 6 -7 10 -16 10 -8 0 -12 -4 -9 -10 4 -6 -7 -10 -25 -10 -18 0 -29 4
-25 10 3 6 2 10 -3 10 -6 0 -12 -7 -16 -15z"/>
</g>
</svg>
