<?xml version="1.0" standalone="no"?>
<!DOCTYPE svg PUBLIC "-//W3C//DTD SVG 20010904//EN"
 "http://www.w3.org/TR/2001/REC-SVG-20010904/DTD/svg10.dtd">
<svg version="1.0" xmlns="http://www.w3.org/2000/svg"
 width="211.000000pt" height="211.000000pt" viewBox="0 0 211.000000 211.000000"
 preserveAspectRatio="xMidYMid meet">
<metadata>
Created by potrace 1.13, written by Peter Selinger 2001-2015
</metadata>
<g transform="translate(0.000000,211.000000) scale(0.100000,-0.100000)"
fill="#000000" stroke="none">
<path d="M1309 1329 c-9 -49 -40 -149 -46 -149 -3 0 -3 28 1 62 3 34 3 58 -1
55 -3 -4 -8 -22 -10 -39 -1 -18 -5 -45 -7 -60 -3 -19 0 -28 9 -28 15 0 29 -30
19 -39 -4 -3 -9 -1 -11 5 -8 23 -40 4 -37 -22 3 -32 -12 -21 -36 26 -13 26
-16 41 -9 45 12 8 11 8 28 -20 11 -18 11 -18 6 5 -4 14 -19 36 -33 49 -17 15
-21 21 -9 17 18 -6 25 18 7 29 -5 3 -10 1 -10 -6 0 -8 -5 -7 -17 2 -16 13 -17
12 -5 -3 9 -11 10 -18 2 -23 -18 -11 -32 6 -26 34 l6 26 -14 -24 c-12 -21 -12
-27 2 -40 8 -8 24 -15 35 -16 11 0 22 -6 25 -14 3 -9 0 -12 -10 -9 -10 4 -14
0 -12 -15 1 -12 3 -28 3 -35 1 -7 5 -11 10 -8 5 3 16 -5 24 -18 14 -21 14 -25
0 -39 -21 -21 -8 -40 18 -27 13 7 19 7 19 0 0 -5 -6 -10 -12 -11 -7 0 -22 -2
-32 -4 -11 -2 -25 3 -31 11 -9 13 -11 12 -11 -5 0 -16 7 -21 28 -21 33 0 37
-15 8 -30 -11 -6 -20 -16 -20 -23 0 -8 3 -8 9 2 6 9 11 10 15 2 4 -6 12 -11
18 -11 6 0 5 7 -3 17 -13 15 -12 15 8 5 33 -18 36 -14 13 16 l-22 27 21 3 c21
3 26 17 22 61 -2 18 2 22 13 18 9 -4 16 -2 16 4 0 6 5 7 12 3 7 -5 8 -3 3 6
-5 8 -3 11 6 8 8 -3 16 -13 17 -23 3 -10 0 -15 -7 -11 -7 5 -9 1 -5 -8 3 -9 2
-16 -4 -16 -6 0 -12 6 -14 12 -3 7 -7 3 -10 -8 -4 -18 -2 -20 14 -16 11 2 25
15 30 28 9 19 8 28 -8 45 -19 21 -18 21 11 48 17 15 39 38 50 51 l20 23 -32
-17 c-17 -9 -38 -13 -47 -10 -12 5 -12 11 1 50 8 25 12 48 9 51 -3 4 -6 4 -7
2z"/>
<path d="M638 1304 c23 -16 82 -91 82 -104 0 -4 -27 -28 -60 -55 -33 -26 -57
-51 -55 -56 3 -4 -3 -13 -12 -19 -16 -10 -15 -10 5 -5 14 4 22 2 22 -6 0 -7 3
-10 6 -7 3 4 1 15 -4 25 -9 16 -1 27 53 71 86 71 95 65 15 -9 l-65 -61 67 57
c37 31 67 60 67 63 -3 22 5 20 38 -12 l37 -35 -19 -23 c-11 -13 -13 -17 -5
-10 17 14 34 16 25 2 -4 -6 5 -10 20 -10 22 0 25 -3 19 -24 -5 -19 0 -26 23
-35 19 -8 21 -10 6 -7 -13 2 -23 0 -23 -5 0 -5 9 -9 20 -9 43 0 -16 -74 -67
-85 -27 -5 -32 -4 -27 8 3 9 -5 23 -20 35 -14 11 -26 25 -26 31 0 6 -8 11 -17
10 -11 0 -13 -3 -5 -6 6 -2 12 -9 12 -14 0 -6 -4 -7 -10 -4 -13 8 -13 -6 0
-25 8 -13 11 -13 19 -1 12 19 31 4 31 -25 0 -23 3 -25 38 -22 20 2 40 8 44 13
5 6 8 5 8 -2 0 -7 5 -13 11 -13 8 0 9 4 0 13 -14 18 -3 28 24 21 13 -3 27 1
34 10 8 10 9 16 3 16 -6 0 -14 -4 -17 -10 -3 -5 -12 -10 -18 -10 -8 0 -8 3 -2
8 6 4 10 14 10 22 0 10 10 15 28 15 15 -1 26 4 24 10 -2 5 -14 9 -26 7 -18 -3
-22 0 -17 15 4 12 -3 28 -19 46 -24 25 -25 28 -11 54 29 53 53 76 70 70 12 -5
15 -13 11 -28 -5 -15 -4 -19 4 -15 6 4 10 19 9 34 -2 20 2 27 21 32 l24 6 -25
16 c-23 15 -24 15 -24 -5 1 -15 -8 -23 -32 -29 -23 -6 -37 -19 -49 -42 -15
-32 -59 -63 -71 -52 -9 9 20 36 31 29 6 -4 8 0 4 10 -4 10 0 17 11 20 16 4 15
5 0 6 -14 1 -18 10 -18 46 0 25 -4 45 -9 45 -5 0 -7 -25 -4 -57 5 -68 -9 -57
-28 19 -6 27 -15 48 -20 48 -6 0 -6 -7 0 -18 11 -21 10 -92 -1 -92 -5 0 -8 6
-8 13 0 7 -15 21 -32 32 -28 16 -31 16 -19 2 11 -14 11 -18 -4 -23 -11 -5 -21
-1 -28 11 -16 30 -79 95 -90 95 -6 0 -1 -7 11 -16z"/>
<path d="M787 480 c-21 -17 -26 -28 -24 -58 l2 -37 109 -3 c94 -2 107 -1 97
12 -9 10 -9 16 -1 21 8 5 8 10 0 20 -6 7 -9 19 -8 26 2 9 -5 13 -17 12 -51 -5
-146 -5 -152 1 -3 3 1 6 10 6 10 0 17 5 17 10 0 14 -4 13 -33 -10z"/>
</g>
</svg>
